#!OML:ASF H:\Male1\Project 1\Capture day 1\Session 1\Male1.ASF
:FULLY-SPECIFIED
:DEGREES
178
root 14.3066 14.2981 0.199748 515.731 -61.5324 -522.719
lowerback 10.8897 1.1799 9.93391
upperback 8.6287 1.63391 1.89875
thorax 3.3201 0.954458 -3.7019
lowerneck 5.01752 7.4792 16.8903
upperneck 8.81206 11.1918 -13.071
head 3.48655 5.75462 -6.47296
rclavicle -3.35993e-015 -2.21055e-014
rhumerus -44.8496 -3.12275 -79.5517
rradius 45.7052
rwrist -26.6144
rhand -18.6117 -1.56467
rfingers 7.12502
rthumb 7.67991 -31.4052
lclavicle -3.35993e-015 -2.21055e-014
lhumerus -48.1189 7.86282 77.4368
lradius 32.6058
lwrist -4.33884
lhand -12.0838 12.2898
lfingers 7.12502
lthumb 13.9762 41.8
rfemur 33.6989 4.38249 25.5594
rtibia 11.3069
rfoot -12.7011 1.13615
rtoes -34.4355
lfemur -38.4909 3.38412 1.20011
ltibia 40.139
lfoot 13.3688 19.1944
ltoes 4.17137
179
root 14.0497 14.2149 0.215536 515.389 -61.1479 -521.184
lowerback 11.0006 1.13935 9.8712
upperback 8.58621 1.59335 1.82273
thorax 3.20668 0.927522 -3.7482
lowerneck 5.35082 7.52563 17.1911
upperneck 7.77311 11.2884 -13.3243
head 3.16855 5.82137 -6.61728
rclavicle -5.4467e-014 -1.45113e-014
rhumerus -45.2075 -2.92306 -79.9504
rradius 46.2005
rwrist -26.4936
rhand -18.2223 -1.13558
rfingers 7.12502
rthumb 8.05576 -30.9621
lclavicle -5.4467e-014 -1.45113e-014
lhumerus -47.8314 7.90759 76.5496
lradius 32.3983
lwrist -4.84615
lhand -11.7606 12.427
lfingers 7.12502
lthumb 14.2877 41.9155
rfemur 34.2241 4.86964 26.0504
rtibia 10.0955
rfoot -12.5544 1.22527
rtoes -34.6417
lfemur -38.7887 4.49858 1.22687
ltibia 41.4144
lfoot 13.0463 19.4945
ltoes 9.29014
180
root 13.7915 14.1373 0.234456 515.414 -60.7428 -519.828
lowerback 11.0513 1.19442 9.70511
upperback 8.60686 1.65882 1.66229
thorax 3.2061 0.957906 -3.8307
lowerneck 5.3797 7.63628 17.445
upperneck 6.71475 11.4266 -13.5501
head 2.89896 5.89835 -6.73067
rclavicle 2.5842e-015 2.38542e-015
rhumerus -45.3764 -2.81514 -80.4847
rradius 46.5573
rwrist -26.4432
rhand -17.9541 -0.610742
rfingers 7.12502
rthumb 8.31467 -30.4271
lclavicle 2.5842e-015 2.38542e-015
lhumerus -47.1395 7.67044 75.7689
lradius 32.1679
lwrist -5.27297
lhand -11.3923 13.1683
lfingers 7.12502
lthumb 14.6426 42.6313
rfemur 34.6817 5.47451 26.4309
rtibia 8.5775
rfoot -11.8487 0.538679
rtoes -35.2846
lfemur -39.4157 5.7609 1.13992
ltibia 43.0505
lfoot 9.17306 15.1195
ltoes -3.54683
181
root 13.5262 14.0706 0.257296 515.669 -60.4564 -518.555
lowerback 11.1212 1.26262 9.51967
upperback 8.58865 1.7539 1.38466
thorax 3.1601 1.00622 -4.02921
lowerneck 5.0175 7.84056 17.4467
upperneck 5.97037 11.6106 -13.3467
head 2.75645 5.98321 -6.64355
rclavicle 3.26007e-014 -3.10104e-014
rhumerus -45.56 -2.77732 -81.1625
rradius 46.8345
rwrist -26.5292
rhand -17.9311 -0.485968
rfingers 7.12502
rthumb 8.33685 -30.3015
lclavicle 3.26007e-014 -3.10104e-014
lhumerus -46.2478 7.30902 74.918
lradius 31.9028
lwrist -5.64527
lhand -12.4978 12.1424
lfingers 7.12502
lthumb 13.5772 41.6797
rfemur 35.3905 6.03624 26.6771
rtibia 6.27513
rfoot -10.5827 0.0710842
rtoes -35.8932
lfemur -40.462 6.98646 0.922275
ltibia 44.9371
lfoot 3.22357 12.873
ltoes -4.8577
182
root 13.258 13.9981 0.284331 515.001 -60.0762 -516.223
lowerback 11.3823 1.28337 9.82932
upperback 8.45425 1.85348 1.23001
thorax 2.9128 1.06283 -4.38134
lowerneck 4.65983 7.98696 17.3702
upperneck 5.38298 11.7099 -12.9799
head 2.63163 6.02399 -6.49779
rclavicle -2.42517e-014 -2.78299e-014
rhumerus -45.9354 -2.69726 -81.8187
rradius 46.9366
rwrist -26.6009
rhand -17.8328 -0.517548
rfingers 7.12502
rthumb 8.43165 -30.3292
lclavicle -2.42517e-014 -2.78299e-014
lhumerus -45.4318 6.9823 74.0095
lradius 31.7294
lwrist -5.88961
lhand -13.3738 11.9242
lfingers 7.12502
lthumb 12.7329 41.516
rfemur 36.8487 6.47866 27.4473
rtibia 2.45538
rfoot -8.23433 -0.226197
rtoes -36.586
lfemur -42.0214 8.32307 1.23585
ltibia 47.0826
lfoot 0.984538 12.49
ltoes -11.7528
183
root 12.9893 13.9886 0.302411 516.386 -60.3895 -515.843
lowerback 11.4619 1.41592 8.68908
upperback 8.19599 2.00346 0.861764
thorax 2.55162 1.09396 -4.15364
lowerneck 4.60761 7.9574 17.309
upperneck 4.47547 11.6116 -12.7254
head 2.33839 5.97192 -6.42454
rclavicle 1.63003e-014 2.62396e-014
rhumerus -46.4006 -2.58839 -82.3329
rradius 46.8192
rwrist -26.6586
rhand -17.3457 -0.557867
rfingers 7.12502
rthumb 8.90175 -30.3501
lclavicle 1.63003e-014 2.62396e-014
lhumerus -44.4545 6.71978 73.2184
lradius 31.4912
lwrist -5.64785
lhand -14.2913 12.132
lfingers 7.12502
lthumb 11.8482 41.7768
rfemur 37.1401 6.81463 26.8855
rtibia 0
rfoot -6.02013 -0.289459
rtoes -37.202
lfemur -44.4393 9.3657 0.0837284
ltibia 49.2829
lfoot -1.55276 11.955
ltoes -11.0581
184
root 12.7274 13.9786 0.318197 517.09 -60.7574 -514.78
lowerback 11.6326 1.63216 7.84287
upperback 8.06826 2.26176 0.551173
thorax 2.31492 1.19314 -4.03678
lowerneck 4.22154 7.8145 17.1158
upperneck 3.48458 11.2958 -12.1472
head 2.01631 5.79854 -6.22994
rclavicle 2.94201e-014 7.15625e-015
rhumerus -46.7105 -2.95791 -82.7394
rradius 46.4508
rwrist -26.5883
rhand -16.7878 -0.212008
rfingers 7.12502
rthumb 9.44006 -29.9806
lclavicle 2.94201e-014 7.15625e-015
lhumerus -42.8184 6.11961 72.6314
lradius 31.2308
lwrist -4.62702
lhand -15.5483 12.4034
lfingers 7.12502
lthumb 10.6359 42.1142
rfemur 36.1467 6.92896 26.595
rtibia 6.36111e-014
rfoot -4.64358 0.175943
rtoes -36.5413
lfemur -46.9093 10.065 -0.730675
ltibia 51.3606
lfoot -3.29358 11.8445
ltoes -5.51441
185
root 12.4532 13.9843 0.332572 517.612 -61.2348 -513.692
lowerback 11.8946 1.8545 6.98266
upperback 7.96114 2.52064 0.249042
thorax 2.04868 1.29065 -3.90665
lowerneck 3.61837 7.65682 16.8479
upperneck 2.7222 10.9306 -11.3223
head 1.77405 5.59229 -5.93788
rclavicle 1.39149e-014 -2.06736e-014
rhumerus -47.0363 -3.30298 -83.1242
rradius 45.8592
rwrist -26.3543
rhand -16.3927 0.0726665
rfingers 7.12502
rthumb 9.82131 -29.6783
lclavicle 1.39149e-014 -2.06736e-014
lhumerus -41.1695 5.22786 72.2153
lradius 31.4658
lwrist -2.68245
lhand -16.9928 13.2615
lfingers 7.12502
lthumb 9.24227 43.0389
rfemur 35.2966 6.92624 26.2557
rtibia -2.22639e-014
rfoot -2.94538 0.62868
rtoes -35.2998
lfemur -48.9228 10.2081 -1.43244
ltibia 53.1272
lfoot -4.74462 11.7982
ltoes -3.22361
186
root 12.1635 14.0062 0.351786 519.168 -61.7985 -513.872
lowerback 12.1015 2.17474 5.60441
upperback 7.84746 2.85015 -0.197473
thorax 1.78399 1.41056 -3.64328
lowerneck 3.27005 7.44298 16.7084
upperneck 1.9193 10.5405 -10.6107
head 1.49139 5.3769 -5.71655
rclavicle 1.59028e-015 4.29375e-014
rhumerus -47.2866 -3.37029 -83.5764
rradius 45.0335
rwrist -26.1879
rhand -16.1119 -0.0551822
rfingers 7.12502
rthumb 10.0922 -29.7932
lclavicle 1.59028e-015 4.29375e-014
lhumerus -39.8652 4.16109 71.9736
lradius 32.2932
lwrist -0.46037
lhand -18.8128 14.2288
lfingers 7.12502
lthumb 7.48582 44.0764
rfemur 34.5173 7.07179 25.275
rtibia -1.59028e-014
rfoot -0.817493 0.683249
rtoes -34.2621
lfemur -49.9476 9.74692 -2.27005
ltibia 54.4388
lfoot -6.90793 10.9635
ltoes -6.31276
187
root 11.8601 14.0542 0.382307 519.863 -61.6066 -512.811
lowerback 12.1116 2.55411 5.19108
upperback 7.5735 3.34404 -0.43295
thorax 1.52354 1.64617 -3.71111
lowerneck 3.01744 7.28559 16.4906
upperneck 1.27829 10.249 -9.91021
head 1.2537 5.21111 -5.48373
rclavicle -2.22639e-014 -3.49861e-014
rhumerus -47.3891 -3.15434 -84.0429
rradius 44.0482
rwrist -26.0835
rhand -15.5637 -0.164527
rfingers 7.12502
rthumb 10.621 -29.8761
lclavicle -2.22639e-014 -3.49861e-014
lhumerus -38.8177 3.36813 71.8794
lradius 33.2588
lwrist 1.17109
lhand -21.0584 14.5091
lfingers 7.12502
lthumb 5.31795 44.4224
rfemur 33.2805 7.68028 25.1121
rtibia -2.22639e-014
rfoot 2.02499 0.501505
rtoes -32.445
lfemur -50.9781 9.86878 -2.27255
ltibia 55.4989
lfoot -8.35054 10.744
ltoes -10.2723
188
root 11.5523 14.1291 0.416335 520.677 -61.2165 -511.839
lowerback 12.043 2.87987 4.87108
upperback 7.29906 3.76877 -0.638827
thorax 1.30244 1.85105 -3.7911
lowerneck 2.62595 7.30403 16.0544
upperneck 0.825548 10.1743 -9.12084
head 1.10829 5.15104 -5.17183
rclavicle 7.95139e-016 1.11319e-014
rhumerus -47.1119 -2.85931 -84.4533
rradius 42.9729
rwrist -25.6762
rhand -14.7905 -0.175953
rfingers 7.12502
rthumb 11.3668 -29.8479
lclavicle 7.95139e-016 1.11319e-014
lhumerus -37.7932 3.12825 71.7695
lradius 34.1522
lwrist 1.98234
lhand -23.1649 14.2771
lfingers 7.12502
lthumb 3.28382 44.2316
rfemur 31.8893 8.48516 24.9274
rtibia -3.18055e-015
rfoot 5.23378 0.164735
rtoes -31.0059
lfemur -51.8352 10.147 -2.31454
ltibia 56.2017
lfoot -10.2501 10.7417
ltoes -3.85289
